HIERARCHY
ROOT Hips
{
	OFFSET	0.00	0.00	0.00
	CHANNELS 6 Xposition Yposition Zposition Zrotation Xrotation Yrotation
	JOINT LeftUpperLeg
	{
		OFFSET	 0.100000	-0.066564	-0.000554
		CHANNELS 3 Zrotation Xrotation Yrotation
		JOINT LeftLowerLeg
		{
			OFFSET	 0.002447	-0.463436	-0.005172
			CHANNELS 3 Zrotation Xrotation Yrotation
			JOINT LeftFoot
			{
				OFFSET	-0.002447	-0.420480	-0.020576
				CHANNELS 3 Zrotation Xrotation Yrotation
				JOINT LeftToes
				{
					OFFSET	 0.003734	-0.104922	 0.126407
					CHANNELS 3 Zrotation Xrotation Yrotation
					End Site
					{
						OFFSET	 0.000000	 0.000000	 0.059955
					}
				}
			}
		}
	}
	JOINT RightUpperLeg
	{
		OFFSET	-0.100000	-0.066564	-0.000554
		CHANNELS 3 Zrotation Xrotation Yrotation
		JOINT RightLowerLeg
		{
			OFFSET	-0.002447	-0.463436	-0.005146
			CHANNELS 3 Zrotation Xrotation Yrotation
			JOINT RightFoot
			{
				OFFSET	 0.002447	-0.420479	-0.020602
				CHANNELS 3 Zrotation Xrotation Yrotation
				JOINT RightToes
				{
					OFFSET	-0.003734	-0.104922	 0.126407
					CHANNELS 3 Zrotation Xrotation Yrotation
					End Site
					{
						OFFSET	-0.000000	 0.000000	 0.059955
					}
				}
			}
		}
	}
	JOINT Spine
	{
		OFFSET	 0.000000	 0.099235	-0.012273
		CHANNELS 3 Zrotation Xrotation Yrotation
		JOINT Chest
		{
			OFFSET	-0.000001	 0.116455	-0.014223
			CHANNELS 3 Zrotation Xrotation Yrotation
			JOINT UpperChest
			{
				OFFSET	 0.000001	 0.133602	-0.016265
				CHANNELS 3 Zrotation Xrotation Yrotation
				JOINT LeftShoulder
				{
					OFFSET	 0.061058	 0.091105	 0.007056
					CHANNELS 3 Zrotation Xrotation Yrotation
					JOINT LeftUpperArm
					{
						OFFSET	 0.133942	-0.002659	-0.026009
						CHANNELS 3 Zrotation Xrotation Yrotation
						JOINT LeftLowerArm
						{
							OFFSET	 0.274047	 0.000000	 0.000000
							CHANNELS 3 Zrotation Xrotation Yrotation
							JOINT LeftHand
							{
								OFFSET	 0.276145	 0.000000	 0.000000
								CHANNELS 3 Zrotation Xrotation Yrotation
								End Site
								{
									OFFSET	 0.165687	 0.000000	 0.000000
								}
							}
						}
					}
				}
				JOINT Neck
				{
					OFFSET	 0.000000	 0.150325	 0.007929
					CHANNELS 3 Zrotation Xrotation Yrotation
					JOINT Head
					{
						OFFSET	 0.000000	 0.103218	 0.031424
						CHANNELS 3 Zrotation Xrotation Yrotation
						End Site
						{
							OFFSET	 0.000000	 0.061931	 0.018855
						}
					}
				}
				JOINT RightShoulder
				{
					OFFSET	-0.061057	 0.091105	 0.007056
					CHANNELS 3 Zrotation Xrotation Yrotation
					JOINT RightUpperArm
					{
						OFFSET	-0.133943	-0.002660	-0.026009
						CHANNELS 3 Zrotation Xrotation Yrotation
						JOINT RightLowerArm
						{
							OFFSET	-0.274047	 0.000000	 0.000000
							CHANNELS 3 Zrotation Xrotation Yrotation
							JOINT RightHand
							{
								OFFSET	-0.276145	 0.000000	 0.000000
								CHANNELS 3 Zrotation Xrotation Yrotation
								End Site
								{
									OFFSET	-0.165687	 0.000000	 0.000000
								}
							}
						}
					}
				}
			}
		}
	}
}
MOTION
Frames:    15
Frame Time: 0.03333334
-0.281820	 1.045370	-0.269500	 0.537716	 0.491837	-48.019790	 15.050300	 0.725914	 19.479650	-0.001445	 0.083032	 0.000592	-7.471268	 6.477836	 5.945369	-0.000052	 0.444992	 1.216504	 2.860353	-9.031093	-14.798220	 0.043633	 19.273760	 0.002520	-1.858830	-12.556180	-11.329530	-0.000548	 0.369529	 0.513451	 1.816876	 0.295358	-2.460724	-0.000000	 0.000000	 0.000000	 3.652777	 0.514187	-4.937140	 0.726181	 3.139151	 23.828450	-83.608410	 2.380750	-1.057549	-27.125500	 18.586910	-59.342090	 23.519380	 19.584070	-11.780090	-0.119661	-1.875672	-4.317574	-0.170199	-1.770728	-4.277125	 1.677491	 3.207509	-28.030080	 80.159490	 12.194180	 13.886380	 21.255920	 22.854200	 77.451960	-30.141080	-4.840790	 8.647575
-0.282550	 1.043310	-0.269400	 0.356531	 0.602929	-47.664830	 15.458680	 0.838586	 19.683590	 0.000009	 0.078173	-0.000567	-9.202677	 5.610592	 5.069059	-0.000396	 0.408194	 0.949154	 2.932302	-9.520403	-15.081710	 0.017906	 20.480440	 0.004793	-2.041493	-13.157770	-11.564080	-0.000244	 0.368670	 0.488990	 1.899646	 0.177837	-2.426130	-0.000000	 0.000000	 0.000000	 3.813516	 0.277808	-4.867007	 0.678548	 3.174453	 23.759490	-83.617070	 1.222463	-1.961913	-27.842050	 19.190580	-58.218420	 23.779130	 19.529610	-11.702420	 0.012407	-2.192424	-4.220928	-0.170998	-1.970361	-4.291168	 1.610214	 3.220454	-27.955050	 79.981180	 12.821280	 14.127510	 21.747880	 23.990620	 76.884020	-30.852930	-4.663086	 8.421914
-0.282730	 1.041800	-0.268500	 0.232194	 0.522555	-47.455740	 15.642970	 1.051878	 19.357590	 0.000599	 0.092727	-0.000053	-10.491240	 4.862659	 4.448643	 0.000353	 0.389311	 0.760294	 2.806886	-9.782096	-15.155300	 0.044722	 21.405460	-0.002189	-2.226270	-13.598010	-11.839010	 0.000201	 0.367611	 0.458796	 1.889629	 0.153442	-2.416554	-0.000000	 0.000000	 0.000000	 3.792167	 0.226881	-4.846417	 0.501744	 3.334605	 23.663260	-83.752190	 0.850295	-2.236612	-27.887360	 19.254920	-58.446670	 23.345950	 19.492250	-11.127790	-0.273607	-1.953822	-4.302126	-0.257986	-1.901281	-4.322789	 1.424030	 3.327234	-27.909440	 79.762990	 13.161320	 14.294870	 22.062090	 24.606480	 76.375880	-30.742100	-4.567073	 8.335520
-0.282700	 1.040700	-0.266400	 0.093357	 0.410468	-46.961910	 15.864350	 1.271142	 18.461550	-0.000269	 0.091753	-0.000097	-12.388540	 3.899362	 3.538714	-0.000198	 0.368720	 0.485296	 2.590631	-9.829436	-15.598330	 0.048459	 22.061940	-0.004190	-2.408600	-13.944980	-12.056330	-0.000583	 0.365006	 0.413986	 1.841454	 0.113078	-2.519851	-0.000000	 0.000000	 0.000000	 3.693145	 0.144063	-5.050641	 0.376269	 3.386000	 23.300300	-83.708150	 0.535574	-2.683197	-28.357680	 19.558770	-58.131310	 23.337330	 19.362550	-11.097230	-0.293527	-2.110873	-4.525961	-0.193546	-2.021960	-4.320180	 1.416858	 3.344694	-28.029130	 79.888050	 13.562890	 14.209220	 22.167280	 25.760770	 75.862620	-30.762290	-4.413192	 8.355764
-0.282430	 1.041180	-0.263910	 0.094365	 0.170233	-46.513630	 15.430730	 1.645871	 16.945060	-0.000336	 0.083335	-0.000282	-13.424140	 3.079910	 3.663392	 0.000119	 0.361168	 0.298952	 2.218999	-9.506742	-16.107100	 0.037291	 21.985280	-0.002184	-2.306669	-14.016100	-11.992670	 0.000631	 0.364419	 0.404954	 1.781583	 0.081981	-2.650292	-0.000000	 0.000000	 0.000000	 3.572079	 0.081148	-5.309923	 0.165853	 3.441153	 23.260980	-83.794820	 0.675771	-2.936267	-28.271790	 19.653180	-58.123410	 23.111880	 19.011440	-11.196750	-0.371684	-2.143404	-4.564991	-0.248272	-2.071523	-4.305699	 1.133013	 3.396012	-27.903900	 80.227120	 13.938520	 13.891310	 22.087180	 26.495740	 75.693020	-30.768170	-4.279459	 8.146897
-0.281430	 1.042430	-0.258760	 0.122427	 0.038686	-46.241490	 13.506450	 1.984953	 14.555660	-0.003738	 2.287001	-0.001613	-12.419880	 0.484546	 4.479583	 0.000414	 0.361389	 0.216424	 1.879989	-8.945738	-16.424280	 0.024081	 21.345510	 0.003107	-2.174218	-13.775920	-11.996140	 0.000477	 0.363088	 0.373170	 1.863755	-0.063190	-2.660407	-0.000000	 0.000000	 0.000000	 3.729646	-0.215308	-5.327106	-0.096327	 3.451026	 23.354040	-83.795100	 0.788855	-3.300961	-28.484040	 19.903270	-57.895720	 22.827170	 18.895230	-11.256720	-0.351503	-2.355838	-4.383443	-0.536208	-2.075533	-4.364627	 0.690818	 3.297973	-27.663440	 80.553920	 14.126200	 13.037370	 22.031550	 27.634310	 75.816700	-30.502420	-4.086153	 7.645040
-0.281220	 1.043650	-0.255550	 0.128936	 0.007317	-46.179320	 12.583150	 0.721094	 13.021240	-0.003287	 6.479192	-0.004094	-10.206110	-1.610148	 4.959147	 0.000131	-1.128042	 0.233074	 1.818594	-8.366017	-16.543630	-0.003500	 20.454670	 0.010664	-2.114866	-13.468920	-11.912010	-0.000387	 0.362371	 0.350423	 1.809632	-0.152907	-2.660897	-0.000000	 0.000000	 0.000000	 3.618799	-0.390410	-5.323416	-0.318928	 3.571225	 23.413260	-83.916880	 0.941366	-3.396634	-28.320750	 20.077400	-57.846430	 22.441820	 18.845010	-11.025870	-0.741415	-2.373960	-4.321567	-0.645609	-2.188603	-4.323324	 0.404612	 3.457297	-27.653110	 80.682690	 14.070660	 12.462850	 21.993090	 28.607560	 75.841990	-30.852530	-3.480384	 7.202137
-0.281390	 1.045480	-0.251690	-0.064255	 0.309388	-46.450730	 12.168370	 0.040979	 11.664120	-0.045432	 9.151103	-0.002149	-10.414250	-4.273987	 7.393898	-0.000470	-0.421127	 0.128278	 2.241743	-7.572989	-16.217150	 0.006149	 18.983730	 0.009392	-1.964460	-12.839180	-11.918010	 0.000071	 0.361368	 0.340739	 1.853429	-0.270591	-2.567151	-0.000000	 0.000000	 0.000000	 3.699188	-0.624211	-5.133158	-0.038225	 3.613938	 23.462750	-84.092670	 0.992782	-3.475184	-28.521620	 20.271580	-57.566220	 22.371090	 18.990840	-11.043760	-0.604805	-2.283023	-4.127241	-0.714208	-2.056053	-4.315253	 0.604122	 3.442307	-27.485080	 80.601640	 14.152040	 12.410480	 22.281340	 29.231580	 75.405820	-31.343450	-2.380623	 6.930324
-0.281100	 1.046370	-0.248050	-0.044248	 0.322422	-46.714090	 11.732570	 0.428716	 11.743240	 0.039774	 8.887767	-0.009666	-10.614210	-4.328154	 7.843541	-0.000648	-0.978600	 0.106478	 2.170003	-7.162663	-16.014240	 0.012983	 18.349140	 0.008233	-1.859710	-12.582950	-11.854070	-0.000436	 0.361421	 0.324352	 1.778664	-0.349553	-2.501707	-0.000000	 0.000000	 0.000000	 3.547278	-0.776416	-5.001231	-0.139612	 3.767819	 23.316130	-84.152190	 1.058739	-3.483233	-28.662570	 20.343150	-57.361320	 22.483330	 19.082020	-11.076680	-0.917679	-2.102112	-4.165168	-0.785505	-1.934419	-4.296917	 0.483830	 3.587593	-27.602800	 80.536190	 14.170100	 12.524090	 22.554060	 29.466770	 74.991200	-31.605600	-1.725367	 6.625370
-0.280550	 1.046320	-0.243580	 0.038278	 0.317097	-47.125400	 11.362310	 0.476047	 10.896180	-0.034675	 9.262965	-0.004505	-10.469050	-4.914085	 9.133509	-0.000445	-1.473745	 0.107123	 1.908863	-7.079381	-15.875740	-0.021423	 18.371220	 0.013439	-1.685506	-12.673480	-11.570530	-0.000394	 0.360824	 0.307190	 1.712380	-0.489313	-2.415793	-0.000000	 0.000000	 0.000000	 3.410149	-1.052615	-4.824619	-0.066167	 3.707466	 23.525130	-84.061490	 1.331901	-3.290985	-28.762710	 20.443040	-57.190810	 22.598500	 19.191230	-11.084170	-1.022040	-2.010432	-4.101406	-0.913900	-1.719912	-4.274073	 0.497968	 3.763139	-27.721050	 80.669840	 14.250740	 12.521650	 22.719140	 29.698960	 74.649060	-31.734750	-1.793509	 6.421817
-0.279760	 1.046190	-0.238070	 0.044568	 0.194526	-47.654430	 10.895460	 0.812637	 10.810720	-0.029054	 9.449286	-0.003862	-10.329630	-5.625368	 9.926505	-0.000112	-1.311273	 0.089496	 1.541083	-6.975838	-15.473170	 0.015153	 18.641800	 0.008567	-1.630739	-12.781690	-11.553250	 0.000402	 0.359467	 0.268552	 1.635921	-0.544576	-2.357887	-0.000000	 0.000000	 0.000000	 3.254274	-1.158822	-4.706252	 0.017307	 4.038483	 23.506530	-83.904020	 1.280695	-3.290090	-28.968530	 20.673960	-56.995510	 22.598950	 19.282540	-11.070340	-1.279548	-1.613658	-4.042566	-1.135933	-1.492662	-4.161930	 0.452350	 3.992926	-27.719300	 80.852960	 14.259570	 12.085410	 22.950790	 29.880060	 74.629960	-32.109160	-1.578763	 6.314403
-0.278790	 1.046180	-0.233830	 0.097610	 0.132180	-47.918110	 10.507540	 1.197079	 11.246850	 0.025195	 9.127428	-0.008587	-10.275020	-5.879477	 9.883699	 0.000355	-1.162507	 0.072694	 1.205101	-6.926155	-15.515050	 0.017805	 18.788120	 0.007807	-1.562910	-12.888240	-11.335280	-0.000892	 0.358791	 0.237874	 1.562258	-0.579897	-2.337926	-0.000000	 0.000000	 0.000000	 3.106712	-1.225478	-4.666162	 0.181983	 4.158412	 23.388090	-83.754640	 1.324512	-3.279984	-29.096010	 20.855450	-56.925800	 22.608050	 19.360780	-11.181410	-1.354883	-1.472963	-4.055488	-1.214431	-1.393800	-4.096361	 0.482107	 4.027115	-27.825700	 81.032140	 14.204870	 11.707200	 22.976380	 29.951160	 74.860470	-32.158530	-1.193213	 6.352689
-0.277000	 1.046070	-0.227990	 0.330103	 0.089492	-48.241940	 9.862456	 1.683535	 10.926330	-0.026779	 8.418137	-0.004409	-10.112240	-6.305656	 10.609820	-0.000128	-0.884714	 0.049140	 0.603787	-7.040843	-15.857050	-0.018771	 19.047990	 0.013313	-1.326330	-13.105590	-10.725020	-0.000338	 0.358624	 0.211166	 1.455123	-0.689064	-2.354583	-0.000000	 0.000000	 0.000000	 2.886828	-1.440301	-4.701375	 0.273363	 4.084602	 23.369690	-83.462020	 1.405263	-3.345925	-29.276230	 21.102160	-56.761430	 22.586810	 19.143620	-11.583740	-1.508002	-1.492054	-3.897038	-1.305586	-1.260258	-3.860955	 0.401869	 3.863317	-27.944240	 81.126850	 14.047680	 11.435710	 23.215080	 30.098600	 75.024640	-32.222160	-0.907083	 6.182097
-0.275160	 1.045890	-0.224170	 0.507915	 0.311105	-48.665660	 9.614337	 1.736354	 11.493290	-0.010246	 8.186096	-0.004016	-10.030000	-6.679541	 10.522040	 0.000467	-0.692943	 0.031291	 0.364780	-7.349997	-15.720600	 0.011943	 19.212940	 0.008366	-1.046542	-13.164170	-10.440540	-0.000525	 0.358681	 0.213389	 1.501415	-0.769160	-2.391032	-0.000000	 0.000000	 0.000000	 2.975007	-1.600808	-4.771011	 0.496704	 4.040917	 23.607490	-83.445210	 1.257496	-3.486736	-29.313960	 21.354250	-56.408920	 22.537200	 19.047110	-11.682760	-1.416342	-1.313502	-3.521616	-1.515725	-1.160969	-3.446375	 0.554330	 3.755357	-27.779740	 81.044920	 13.868320	 11.346760	 23.493230	 30.296520	 75.057100	-32.386520	-0.942535	 5.849205
-0.273020	 1.045720	-0.219020	 0.721244	 0.612703	-49.152680	 9.349405	 1.670362	 12.243060	-0.002151	 8.144751	-0.005894	-9.628882	-7.134639	 10.253360	 0.000463	-0.549369	 0.037334	 0.083853	-7.725630	-15.733870	-0.003671	 19.420190	 0.010638	-0.703725	-13.253950	-9.980745	-0.000323	 0.357901	 0.207192	 1.524491	-0.919041	-2.377803	-0.000000	 0.000000	 0.000000	 3.016014	-1.905482	-4.743274	 0.503142	 3.931847	 23.762580	-83.287730	 1.263766	-3.606929	-29.533270	 21.462870	-56.058060	 22.737150	 19.139370	-11.778410	-1.565127	-1.358057	-2.962470	-1.630317	-1.056472	-2.981908	 0.454934	 3.777048	-28.129740	 81.025120	 14.234270	 11.573720	 23.822050	 30.422910	 74.998400	-32.465050	-0.982293	 5.656990
